# xmcd
# 
# Track frame offsets:
#     150
#     9553
#     24159
#     42408
#     57339
#     71146
#     84174
#     105293
#     118715
#     137100
#     168143
# 
# Disc length: 2468
# 
# Revision: 1
# Processed by: cddbd v1.5.2PL0 Copyright (c) Steve Scherf et al.
# Submitted via: BonkEnc v1.0rc2
# 
DISCID=8309a20b
DTITLE=Divokej Bill - Mezi nima
DYEAR=2003
DGENRE=Rock
TTITLE0=Bagdad
TTITLE1=Pocit
TTITLE2=Znameni
TTITLE3=Malovani
TTITLE4=Kvuli holkam
TTITLE5=Vokna
TTITLE6=Armada
TTITLE7=Mrazik
TTITLE8=Kolem Tebe
TTITLE9=Kotle
TTITLE10=Na Tvy louce zeleny
EXTD=
EXTT0=
EXTT1=
EXTT2=
EXTT3=
EXTT4=
EXTT5=
EXTT6=
EXTT7=
EXTT8=
EXTT9=
EXTT10=
PLAYORDER=
